<svg width="165" height="38" viewBox="0 0 165 38" fill="none" xmlns="http://www.w3.org/2000/svg">
<path d="M13.7565 14.4015H9.7606L6.91103 16.7297V23.5812H0V0.299338H6.91103V9.81164L17.7853 0.299338H25.8427L15.0012 9.6786H18.9644L26.0719 23.5812H18.7024L13.7565 14.4015Z" fill="#F7633D"/>
<path d="M48.3291 23.5812L46.5931 19.0579H35.9809L34.2778 23.5812H27.2685L36.0465 0.299338H46.3639L55.4366 23.5812H48.3291ZM37.7169 14.4015H44.7917L41.2215 5.05549L37.7169 14.4015Z" fill="#272525"/>
<path d="M76.1493 16.2308L83.912 23.5812H75.8546L69.1073 17.2618V14.4015H63.9977V23.5812H57.0212V0.299338H73.2015C78.8024 0.299338 82.0123 2.02885 82.0123 7.31715C82.0123 11.5411 79.8177 13.4702 76.1493 14.1354V16.2308ZM63.9977 5.22179V9.6786H71.3018C72.6447 9.6786 74.8392 9.64534 74.8392 7.38367C74.8392 5.22179 72.743 5.22179 71.8259 5.22179H63.9977Z" fill="#272525"/>
<path d="M104.809 16.2308L112.571 23.5812H104.514L97.7668 17.2618V14.4015H92.6572V23.5812H85.6807V0.299338H101.861C107.462 0.299338 110.672 2.02885 110.672 7.31715C110.672 11.5411 108.477 13.4702 104.809 14.1354V16.2308ZM92.6572 5.22179V9.6786H99.9613C101.304 9.6786 103.499 9.64534 103.499 7.38367C103.499 5.22179 101.402 5.22179 100.485 5.22179H92.6572Z" fill="#272525"/>
<path d="M127.346 23.9138C118.503 23.9138 113 18.825 113 12.0068C113 5.28831 118.405 0 127.543 0C137.303 0 141.692 6.15306 141.692 12.04C141.692 18.4592 136.452 23.9138 127.346 23.9138ZM127.346 18.9913C131.506 18.9913 134.454 16.3306 134.454 11.9735C134.454 7.35041 131.113 4.95571 127.117 4.92245C122.368 4.92245 120.075 8.48124 120.075 12.1066C120.075 16.1975 123.056 18.9913 127.346 18.9913Z" fill="#272525"/>
<path d="M165 0.299338V5.22179H157.368V23.5812H150.621V5.22179H142.531V0.299338H165Z" fill="#272525"/>
<path d="M57.4493 37.9425C57.3655 37.9425 57.3096 37.9138 57.2537 37.8563C57.1979 37.7989 57.1699 37.7414 57.1699 37.6552V29.4663C57.1699 29.3801 57.1979 29.2939 57.2537 29.2652C57.3096 29.2077 57.3655 29.179 57.4493 29.179H62.1985C62.2823 29.179 62.3662 29.2077 62.3941 29.2652C62.45 29.3227 62.4779 29.3801 62.4779 29.4663V29.6675C62.4779 29.7537 62.45 29.8111 62.3941 29.8686C62.3382 29.9261 62.2823 29.9548 62.1985 29.9548H57.9522V33.1442H61.9192C62.003 33.1442 62.0868 33.1729 62.1147 33.2304C62.1706 33.2878 62.1985 33.3453 62.1985 33.4315V33.6326C62.1985 33.7188 62.1706 33.7763 62.1147 33.8337C62.0588 33.8912 62.003 33.9199 61.9192 33.9199H57.9522V37.2242H62.2823C62.3662 37.2242 62.45 37.253 62.4779 37.3104C62.5338 37.3679 62.5617 37.4254 62.5617 37.5116V37.7127C62.5617 37.7989 62.5338 37.8563 62.4779 37.9138C62.422 37.9713 62.3662 38 62.2823 38H57.4493V37.9425Z" fill="#707070"/>
<path d="M69.4052 37.8195C69.3488 37.8195 69.2924 37.7911 69.236 37.7342C69.1796 37.6774 69.1514 37.6205 69.1514 37.5637C69.1514 37.5353 69.1514 37.5069 69.1796 37.4784C69.1796 37.45 69.2078 37.4216 69.2078 37.4216L72.0559 33.4424L69.3206 29.6054C69.2924 29.5485 69.2642 29.4917 69.2642 29.4348C69.2642 29.378 69.2924 29.3211 69.3488 29.2643C69.4052 29.2074 69.4616 29.179 69.518 29.179H69.8C69.8564 29.179 69.9128 29.2074 69.941 29.2359C69.9974 29.2643 70.0256 29.3211 70.082 29.378L72.5353 32.8455L74.9605 29.378C74.9887 29.3211 75.0451 29.2643 75.1015 29.2359C75.1579 29.2074 75.1861 29.179 75.2425 29.179H75.5245C75.5809 29.179 75.6373 29.2074 75.6937 29.2643C75.7501 29.3211 75.7783 29.378 75.7783 29.4348C75.7783 29.4917 75.7501 29.5485 75.7219 29.6054L73.0147 33.4708L75.8629 37.45C75.8911 37.4784 75.8911 37.4784 75.8911 37.5069C75.8911 37.5353 75.8911 37.5637 75.8911 37.5921C75.8911 37.649 75.8629 37.7058 75.8065 37.7627C75.7501 37.8195 75.6937 37.8479 75.6373 37.8479H75.3553C75.2989 37.8479 75.2425 37.8195 75.2143 37.7911C75.1579 37.7627 75.1297 37.7058 75.0733 37.649L72.5071 34.0677L69.941 37.649C69.9128 37.7058 69.8564 37.7627 69.8 37.7911C69.7436 37.8195 69.7154 37.8479 69.659 37.8479H69.4052V37.8195Z" fill="#707070"/>
<path d="M85.6822 37.9999C84.9585 37.9999 84.3462 37.8561 83.8731 37.5685C83.3999 37.2809 83.0659 36.8783 82.8433 36.3606C82.6206 35.8429 82.4814 35.2677 82.4814 34.635C82.4814 34.2899 82.4814 33.916 82.4814 33.5422C82.4814 33.1395 82.4814 32.7656 82.4814 32.4205C82.5093 31.759 82.6206 31.1838 82.8433 30.6662C83.0659 30.1485 83.3999 29.7459 83.8731 29.4583C84.3462 29.1707 84.9307 29.0269 85.6822 29.0269C86.2666 29.0269 86.7398 29.1131 87.1573 29.2857C87.5469 29.4583 87.8809 29.6596 88.1314 29.9472C88.3819 30.206 88.5767 30.5224 88.6881 30.81C88.7994 31.1263 88.8829 31.4427 88.9107 31.7303C88.9107 31.8166 88.8829 31.8741 88.8551 31.9028C88.7994 31.9604 88.7437 31.9604 88.6602 31.9604H88.4097C88.3541 31.9604 88.2984 31.9316 88.2427 31.9028C88.1871 31.8741 88.1592 31.7878 88.1592 31.7015C87.9922 30.9538 87.7139 30.4648 87.2964 30.1773C86.879 29.8897 86.3501 29.7746 85.6822 29.7746C84.9585 29.7746 84.374 29.9759 83.9287 30.4073C83.4834 30.8387 83.2608 31.529 83.2329 32.478C83.2051 33.1683 83.2051 33.8585 83.2329 34.5775C83.2608 35.5266 83.4834 36.2168 83.9287 36.6482C84.3462 37.0796 84.9307 37.2809 85.6822 37.2809C86.3223 37.2809 86.8511 37.1371 87.2964 36.8783C87.7139 36.5907 88.0201 36.1018 88.1592 35.354C88.1871 35.2677 88.2149 35.1815 88.2427 35.1527C88.2984 35.1239 88.3541 35.0952 88.4097 35.0952H88.6602C88.7437 35.0952 88.7994 35.1239 88.8551 35.1527C88.9107 35.2102 88.9386 35.2677 88.9107 35.3253C88.8829 35.6129 88.8272 35.9292 88.6881 36.2456C88.5767 36.5619 88.3819 36.8495 88.1314 37.1084C87.8809 37.3672 87.5469 37.5973 87.1573 37.7699C86.7398 37.9137 86.2666 37.9999 85.6822 37.9999Z" fill="#707070"/>
<path d="M96.5483 37.8479C96.462 37.8479 96.4045 37.8195 96.347 37.7627C96.2895 37.7058 96.2607 37.649 96.2607 37.5637V29.4632C96.2607 29.378 96.2895 29.2927 96.347 29.2643C96.4045 29.2074 96.462 29.179 96.5483 29.179H96.7783C96.8645 29.179 96.9508 29.2074 96.9795 29.2643C97.037 29.3211 97.0658 29.378 97.0658 29.4632V33.0729H101.896V29.4632C101.896 29.378 101.925 29.2927 101.982 29.2643C102.04 29.2074 102.097 29.179 102.183 29.179H102.413C102.5 29.179 102.586 29.2074 102.615 29.2643C102.672 29.3211 102.701 29.378 102.701 29.4632V37.5637C102.701 37.649 102.672 37.7058 102.615 37.7627C102.557 37.8195 102.5 37.8479 102.413 37.8479H102.183C102.097 37.8479 102.04 37.8195 101.982 37.7627C101.925 37.7058 101.896 37.649 101.896 37.5637V33.8119H97.0658V37.5637C97.0658 37.649 97.037 37.7058 96.9795 37.7627C96.922 37.8195 96.8645 37.8479 96.7783 37.8479H96.5483Z" fill="#707070"/>
<path d="M109.846 37.8479C109.789 37.8479 109.732 37.8195 109.675 37.7627C109.618 37.7058 109.59 37.649 109.59 37.5921C109.59 37.5637 109.59 37.5068 109.618 37.45L112.75 29.4348C112.779 29.3496 112.836 29.2927 112.893 29.2359C112.95 29.2074 113.035 29.179 113.121 29.179H113.548C113.633 29.179 113.719 29.2074 113.775 29.2359C113.832 29.2643 113.861 29.3496 113.918 29.4348L117.05 37.45C117.078 37.5068 117.078 37.5353 117.078 37.5921C117.078 37.649 117.05 37.7058 116.993 37.7627C116.936 37.8195 116.879 37.8479 116.822 37.8479H116.537C116.452 37.8479 116.395 37.8195 116.338 37.7911C116.31 37.7342 116.281 37.7058 116.253 37.6774L115.484 35.6878H111.127L110.359 37.6774C110.359 37.7058 110.33 37.7627 110.273 37.7911C110.216 37.8479 110.159 37.8479 110.074 37.8479H109.846ZM111.412 34.9204H115.199L113.32 30.0601L111.412 34.9204Z" fill="#707070"/>
<path d="M124.401 37.8479C124.316 37.8479 124.26 37.8195 124.203 37.7627C124.146 37.7058 124.118 37.649 124.118 37.5637V29.4632C124.118 29.378 124.146 29.2927 124.203 29.2643C124.26 29.2074 124.316 29.179 124.401 29.179H124.656C124.741 29.179 124.797 29.2074 124.854 29.2359C124.882 29.2643 124.911 29.2927 124.939 29.3211L129.466 36.2847V29.4632C129.466 29.378 129.495 29.2927 129.551 29.2643C129.608 29.2074 129.665 29.179 129.749 29.179H129.976C130.061 29.179 130.146 29.2074 130.174 29.2643C130.231 29.3211 130.259 29.378 130.259 29.4632V37.5353C130.259 37.6205 130.231 37.6774 130.174 37.7342C130.117 37.7911 130.061 37.8195 129.976 37.8195H129.693C129.608 37.8195 129.551 37.7911 129.523 37.7627C129.495 37.7342 129.466 37.7058 129.438 37.6774L124.911 30.7423V37.5637C124.911 37.649 124.882 37.7058 124.826 37.7627C124.769 37.8195 124.712 37.8479 124.628 37.8479H124.401Z" fill="#707070"/>
<path d="M141.042 37.9999C140.338 37.9999 139.747 37.8566 139.268 37.5699C138.789 37.2832 138.423 36.9106 138.17 36.3945C137.916 35.9072 137.775 35.3338 137.747 34.6745C137.747 34.3018 137.747 33.9004 137.747 33.4991C137.747 33.0977 137.747 32.6964 137.747 32.3237C137.775 31.6643 137.916 31.091 138.17 30.6036C138.423 30.1162 138.789 29.7149 139.268 29.4569C139.747 29.1702 140.338 29.0269 141.042 29.0269C141.605 29.0269 142.084 29.1129 142.478 29.2849C142.873 29.4569 143.211 29.6576 143.464 29.9156C143.717 30.1736 143.915 30.4316 144.027 30.6896C144.14 30.9476 144.224 31.177 144.224 31.349C144.224 31.435 144.224 31.4923 144.168 31.521C144.112 31.5783 144.055 31.5783 143.971 31.5783H143.689C143.605 31.5783 143.577 31.5496 143.52 31.521C143.492 31.4923 143.464 31.4063 143.436 31.3203C143.351 31.0623 143.211 30.8043 143.013 30.5749C142.816 30.3456 142.563 30.1449 142.253 30.0016C141.943 29.8582 141.521 29.7722 141.042 29.7722C140.31 29.7722 139.718 29.9729 139.268 30.3743C138.817 30.7756 138.564 31.435 138.536 32.381C138.507 33.1264 138.507 33.8717 138.536 34.6171C138.564 35.5345 138.817 36.2225 139.268 36.6239C139.718 37.0252 140.31 37.2259 141.042 37.2259C141.521 37.2259 141.943 37.1399 142.338 36.9392C142.732 36.7385 143.013 36.4519 143.239 36.0792C143.464 35.7065 143.577 35.1905 143.577 34.5884V33.9578H141.436C141.352 33.9578 141.296 33.9291 141.239 33.8717C141.183 33.8144 141.155 33.7571 141.155 33.6711V33.4991C141.155 33.4131 141.183 33.3271 141.239 33.2984C141.296 33.2411 141.352 33.2124 141.436 33.2124H144.055C144.14 33.2124 144.224 33.2411 144.253 33.2984C144.309 33.3557 144.337 33.4131 144.337 33.4991V34.5884C144.337 35.2478 144.196 35.8498 143.943 36.3372C143.689 36.8532 143.323 37.2259 142.816 37.5126C142.338 37.8566 141.746 37.9999 141.042 37.9999Z" fill="#707070"/>
<path d="M151.963 37.9425C151.877 37.9425 151.819 37.9138 151.762 37.8563C151.704 37.7989 151.676 37.7414 151.676 37.6552V29.4663C151.676 29.3801 151.704 29.2939 151.762 29.2652C151.819 29.2077 151.877 29.179 151.963 29.179H156.844C156.93 29.179 157.016 29.2077 157.045 29.2652C157.102 29.3227 157.131 29.3801 157.131 29.4663V29.6675C157.131 29.7537 157.102 29.8111 157.045 29.8686C156.988 29.9261 156.93 29.9548 156.844 29.9548H152.48V33.1442H156.557C156.643 33.1442 156.729 33.1729 156.758 33.2304C156.815 33.2878 156.844 33.3453 156.844 33.4315V33.6326C156.844 33.7188 156.815 33.7763 156.758 33.8337C156.701 33.8912 156.643 33.9199 156.557 33.9199H152.48V37.2242H156.93C157.016 37.2242 157.102 37.253 157.131 37.3104C157.189 37.3679 157.217 37.4254 157.217 37.5116V37.7127C157.217 37.7989 157.189 37.8563 157.131 37.9138C157.074 37.9713 157.016 38 156.93 38H151.963V37.9425Z" fill="#707070"/>
</svg>
